<svg width="553" height="27" viewBox="0 0 553 27" fill="none" xmlns="http://www.w3.org/2000/svg">
<rect width="26.7468" height="13.7502" transform="matrix(0 1 1 0 0 0)" fill="#375591"/>
<rect width="26.7468" height="35.7505" transform="matrix(0 1 1 0 22 0)" fill="#375591"/>
<rect width="26.7468" height="38.5005" transform="matrix(0 1 1 0 176.002 0)" fill="#375591"/>
<rect width="26.7468" height="16.5002" transform="matrix(0 1 1 0 63.251 0)" fill="#375591"/>
<rect width="26.7468" height="57.7508" transform="matrix(0 1 1 0 88.002 0)" fill="#375591"/>
<rect width="26.7468" height="5.50008" transform="matrix(0 1 1 0 220.003 0)" fill="#375591"/>
<rect width="26.7468" height="5.50008" transform="matrix(0 1 1 0 233.753 0)" fill="#375591"/>
<rect width="26.7468" height="8.25011" transform="matrix(0 1 1 0 264.004 0)" fill="#375591"/>
<rect width="26.7468" height="2.75004" transform="matrix(0 1 1 0 247.503 0)" fill="#375591"/>
<rect width="26.7468" height="16.5002" transform="matrix(0 1 1 0 154.002 0)" fill="#375591"/>
<rect width="26.7468" height="13.7502" transform="matrix(0 1 1 0 280.504 0)" fill="#375591"/>
<rect width="26.7468" height="35.7505" transform="matrix(0 1 1 0 302.504 0)" fill="#375591"/>
<rect width="26.7468" height="38.5005" transform="matrix(0 1 1 0 456.506 0)" fill="#375591"/>
<rect width="26.7468" height="13.7502" transform="matrix(0 1 1 0 343.754 0)" fill="#375591"/>
<rect width="26.7468" height="57.7508" transform="matrix(0 1 1 0 365.755 0)" fill="#375591"/>
<rect width="26.7468" height="2.75004" transform="matrix(0 1 1 0 500.507 0)" fill="#375591"/>
<rect width="26.7468" height="5.50008" transform="matrix(0 1 1 0 511.507 0)" fill="#375591"/>
<rect width="26.7468" height="8.25011" transform="matrix(0 1 1 0 544.507 0)" fill="#375591"/>
<rect width="26.7468" height="2.75004" transform="matrix(0 1 1 0 536.257 0)" fill="#375591"/>
<rect width="26.7468" height="13.7502" transform="matrix(0 1 1 0 434.506 0)" fill="#375591"/>
</svg>
